<svg xmlns="http://www.w3.org/2000/svg" xmlns:xlink="http://www.w3.org/1999/xlink" width="500" zoomAndPan="magnify" viewBox="0 0 375 374.999991" height="500" preserveAspectRatio="xMidYMid meet" version="1.0"><path fill="#1a4299" d="M 365.730469 241.359375 C 364.90625 244.09375 364.03125 246.832031 363.074219 249.511719 C 337.527344 321.804688 268.554688 373.617188 187.5 373.617188 C 106.445312 373.617188 37.472656 321.804688 11.925781 249.511719 C 10.96875 246.832031 10.09375 244.09375 9.242188 241.359375 Z M 365.730469 241.359375 " fill-opacity="1" fill-rule="nonzero"/><path fill="#ffffff" d="M 373.671875 187.445312 C 373.695312 205.8125 371.046875 223.78125 365.730469 241.359375 C 364.90625 244.09375 364.03125 246.832031 363.074219 249.511719 L 11.925781 249.511719 C 10.96875 246.832031 10.09375 244.09375 9.242188 241.359375 C 6.410156 231.925781 4.332031 222.328125 3.015625 212.570312 C 1.695312 202.808594 1.152344 193.003906 1.378906 183.15625 C 1.605469 173.308594 2.605469 163.542969 4.371094 153.851562 C 6.140625 144.164062 8.660156 134.671875 11.925781 125.378906 C 13.09375 122.035156 14.394531 118.742188 15.75 115.472656 L 359.25 115.472656 C 360.605469 118.742188 361.878906 122.035156 363.074219 125.378906 C 366.589844 135.347656 369.238281 145.542969 371.015625 155.960938 C 372.796875 166.382812 373.679688 176.875 373.671875 187.445312 Z M 373.671875 187.445312 " fill-opacity="1" fill-rule="nonzero"/><path fill="#c40304" d="M 363.074219 125.378906 L 11.925781 125.378906 C 13.09375 122.035156 14.394531 118.742188 15.75 115.472656 C 43.902344 48.390625 110.191406 1.273438 187.5 1.273438 C 264.8125 1.273438 331.097656 48.390625 359.25 115.472656 C 360.605469 118.742188 361.878906 122.035156 363.074219 125.378906 Z M 363.074219 125.378906 " fill-opacity="1" fill-rule="nonzero"/><path fill="#e6e6e6" d="M 187.5 374.945312 C 147.953125 374.945312 110.136719 362.785156 78.132812 339.757812 C 70.398438 334.199219 63.128906 328.089844 56.320312 321.425781 C 49.515625 314.765625 43.253906 307.625 37.53125 300.007812 C 31.8125 292.394531 26.703125 284.386719 22.199219 275.996094 C 17.699219 267.601562 13.855469 258.914062 10.675781 249.9375 C 9.71875 247.253906 8.816406 244.492188 7.992188 241.730469 C 6.566406 236.992188 5.328125 232.199219 4.277344 227.363281 C 3.230469 222.523438 2.371094 217.652344 1.707031 212.746094 C 1.042969 207.839844 0.570312 202.914062 0.292969 197.96875 C 0.015625 193.027344 -0.0625 188.082031 0.0507812 183.128906 C 0.164062 178.179688 0.472656 173.242188 0.976562 168.316406 C 1.480469 163.390625 2.175781 158.492188 3.066406 153.625 C 3.953125 148.753906 5.035156 143.925781 6.304688 139.140625 C 7.574219 134.355469 9.03125 129.625 10.675781 124.957031 C 11.84375 121.609375 13.144531 118.238281 14.527344 114.96875 C 16.304688 110.742188 18.234375 106.582031 20.316406 102.496094 C 22.398438 98.410156 24.628906 94.40625 27.003906 90.480469 C 29.378906 86.558594 31.898438 82.726562 34.554688 78.988281 C 37.210938 75.25 40 71.613281 42.925781 68.078125 C 45.847656 64.542969 48.898438 61.121094 52.074219 57.8125 C 55.246094 54.5 58.539062 51.308594 61.949219 48.242188 C 65.355469 45.171875 68.875 42.230469 72.496094 39.421875 C 76.121094 36.609375 79.84375 33.933594 83.664062 31.394531 C 87.484375 28.855469 91.394531 26.460938 95.390625 24.210938 C 99.386719 21.957031 103.457031 19.855469 107.609375 17.902344 C 111.757812 15.949219 115.976562 14.152344 120.257812 12.507812 C 124.539062 10.863281 128.875 9.378906 133.265625 8.054688 C 137.660156 6.726562 142.09375 5.566406 146.570312 4.5625 C 151.046875 3.5625 155.550781 2.726562 160.089844 2.058594 C 164.628906 1.386719 169.183594 0.886719 173.757812 0.550781 C 178.332031 0.214844 182.914062 0.046875 187.5 0.046875 C 192.085938 0.046875 196.667969 0.214844 201.242188 0.550781 C 205.816406 0.886719 210.371094 1.386719 214.910156 2.058594 C 219.449219 2.726562 223.953125 3.5625 228.429688 4.5625 C 232.90625 5.566406 237.339844 6.726562 241.730469 8.054688 C 246.125 9.378906 250.460938 10.863281 254.742188 12.507812 C 259.023438 14.152344 263.242188 15.949219 267.390625 17.902344 C 271.542969 19.855469 275.613281 21.957031 279.609375 24.210938 C 283.605469 26.460938 287.515625 28.855469 291.335938 31.394531 C 295.15625 33.933594 298.878906 36.609375 302.503906 39.421875 C 306.125 42.230469 309.644531 45.171875 313.050781 48.242188 C 316.460938 51.308594 319.753906 54.5 322.925781 57.8125 C 326.101562 61.121094 329.152344 64.542969 332.074219 68.078125 C 335 71.613281 337.789062 75.25 340.445312 78.988281 C 343.101562 82.726562 345.621094 86.558594 347.996094 90.480469 C 350.371094 94.40625 352.601562 98.410156 354.683594 102.496094 C 356.765625 106.582031 358.695312 110.742188 360.472656 114.96875 C 361.855469 118.238281 363.15625 121.609375 364.324219 124.957031 C 365.96875 129.625 367.425781 134.355469 368.695312 139.140625 C 369.964844 143.925781 371.046875 148.753906 371.933594 153.625 C 372.824219 158.492188 373.519531 163.390625 374.023438 168.316406 C 374.527344 173.242188 374.835938 178.179688 374.949219 183.128906 C 375.0625 188.082031 374.980469 193.027344 374.707031 197.96875 C 374.429688 202.914062 373.957031 207.839844 373.292969 212.746094 C 372.628906 217.652344 371.769531 222.523438 370.722656 227.363281 C 369.671875 232.199219 368.433594 236.992188 367.007812 241.730469 C 366.183594 244.492188 365.28125 247.253906 364.324219 249.9375 C 361.144531 258.914062 357.300781 267.601562 352.800781 275.996094 C 348.296875 284.386719 343.1875 292.394531 337.46875 300.007812 C 331.746094 307.625 325.484375 314.765625 318.679688 321.425781 C 311.871094 328.089844 304.601562 334.199219 296.867188 339.757812 C 264.863281 362.785156 227.046875 374.945312 187.5 374.945312 Z M 187.5 2.601562 C 112.820312 2.601562 45.867188 47.113281 16.96875 115.980469 C 15.617188 119.21875 14.339844 122.539062 13.171875 125.832031 C 9.929688 135.058594 7.433594 144.480469 5.675781 154.101562 C 3.921875 163.722656 2.929688 173.421875 2.707031 183.199219 C 2.480469 192.976562 3.023438 202.710938 4.332031 212.402344 C 5.640625 222.09375 7.703125 231.621094 10.515625 240.988281 C 11.339844 243.671875 12.242188 246.40625 13.171875 249.0625 C 39.226562 322.761719 109.285156 372.292969 187.5 372.292969 C 265.714844 372.292969 335.773438 322.761719 361.828125 249.0625 C 362.757812 246.40625 363.660156 243.671875 364.484375 240.988281 C 367.296875 231.621094 369.359375 222.09375 370.667969 212.402344 C 371.976562 202.710938 372.519531 192.976562 372.292969 183.199219 C 372.070312 173.421875 371.078125 163.722656 369.324219 154.101562 C 367.566406 144.480469 365.070312 135.058594 361.828125 125.832031 C 360.660156 122.539062 359.382812 119.21875 358.03125 115.980469 C 329.132812 47.113281 262.179688 2.601562 187.5 2.601562 Z M 187.5 2.601562 " fill-opacity="1" fill-rule="nonzero"/></svg>