<svg xmlns="http://www.w3.org/2000/svg" xmlns:xlink="http://www.w3.org/1999/xlink" width="500" zoomAndPan="magnify" viewBox="0 0 375 374.999991" height="500" preserveAspectRatio="xMidYMid meet" version="1.0"><path fill="#232c65" d="M 233.492188 369.289062 C 276.957031 358.328125 314.394531 332.199219 339.824219 296.851562 L 233.492188 242.710938 Z M 233.492188 369.289062 " fill-opacity="1" fill-rule="nonzero"/><path fill="#232c65" d="M 340.261719 78.757812 C 314.828125 43.089844 277.191406 16.703125 233.460938 5.683594 L 233.460938 132.953125 Z M 340.261719 78.757812 " fill-opacity="1" fill-rule="nonzero"/><path fill="#232c65" d="M 368.707031 139.132812 C 367.78125 135.652344 366.765625 132.199219 365.632812 128.808594 L 345.335938 139.132812 Z M 368.707031 139.132812 " fill-opacity="1" fill-rule="nonzero"/><path fill="#232c65" d="M 141.394531 5.710938 C 97.78125 16.761719 60.226562 43.089844 34.828125 78.671875 L 141.394531 132.753906 Z M 141.394531 5.710938 " fill-opacity="1" fill-rule="nonzero"/><path fill="#232c65" d="M 5.769531 233.695312 C 6.871094 238.015625 8.121094 242.304688 9.511719 246.511719 L 35 233.695312 Z M 5.769531 233.695312 " fill-opacity="1" fill-rule="nonzero"/><path fill="#232c65" d="M 9.425781 128.78125 C 8.292969 132.171875 7.277344 135.621094 6.351562 139.101562 L 29.984375 139.101562 Z M 9.425781 128.78125 " fill-opacity="1" fill-rule="nonzero"/><path fill="#232c65" d="M 35.289062 296.9375 C 60.691406 332.199219 98.042969 358.269531 141.394531 369.257812 L 141.394531 242.945312 Z M 35.289062 296.9375 " fill-opacity="1" fill-rule="nonzero"/><path fill="#232c65" d="M 365.574219 246.367188 C 366.9375 242.191406 368.183594 237.957031 369.289062 233.695312 L 340.289062 233.695312 Z M 365.574219 246.367188 " fill-opacity="1" fill-rule="nonzero"/><path fill="#ffffff" d="M 2.117188 215.453125 C 3.042969 221.628906 4.261719 227.71875 5.769531 233.695312 L 35 233.695312 L 9.511719 246.511719 C 12.46875 255.441406 16.066406 264.054688 20.296875 272.347656 L 95.433594 234.332031 L 136.898438 234.246094 L 29.289062 288.09375 C 31.203125 291.109375 33.203125 294.066406 35.289062 296.9375 L 141.394531 242.914062 L 141.394531 369.230469 C 147.394531 370.738281 153.484375 371.984375 159.691406 372.882812 L 159.691406 215.453125 Z M 2.117188 215.453125 " fill-opacity="1" fill-rule="nonzero"/><path fill="#ffffff" d="M 345.335938 139.132812 L 365.632812 128.808594 C 362.703125 119.90625 359.136719 111.324219 354.960938 103.058594 L 280.03125 141.015625 L 238.390625 140.988281 L 345.652344 86.703125 C 343.941406 84.007812 342.144531 81.339844 340.289062 78.757812 L 233.492188 132.953125 L 233.492188 5.683594 C 227.660156 4.203125 221.746094 3.015625 215.714844 2.117188 L 215.714844 159.863281 L 372.96875 159.863281 C 371.925781 152.820312 370.503906 145.886719 368.707031 139.132812 Z M 345.335938 139.132812 " fill-opacity="1" fill-rule="nonzero"/><path fill="#ffffff" d="M 215.714844 372.855469 C 221.746094 371.957031 227.660156 370.738281 233.492188 369.289062 L 233.492188 242.710938 L 339.824219 296.851562 C 345.421875 289.078125 350.4375 280.84375 354.789062 272.261719 L 280.757812 234.796875 L 320.570312 235.636719 L 362.066406 256.078125 C 363.3125 252.890625 364.503906 249.640625 365.574219 246.367188 L 340.289062 233.695312 L 369.289062 233.695312 C 370.796875 227.71875 372.042969 221.628906 372.941406 215.453125 L 215.714844 215.453125 Z M 215.714844 372.855469 " fill-opacity="1" fill-rule="nonzero"/><path fill="#ffffff" d="M 159.691406 2.058594 C 153.484375 2.988281 147.394531 4.203125 141.394531 5.710938 L 141.394531 132.753906 L 34.828125 78.671875 C 29.289062 86.414062 24.328125 94.621094 20.007812 103.175781 L 95.375 141.507812 L 55.558594 140.667969 L 12.757812 119.441406 C 11.570312 122.515625 10.4375 125.648438 9.394531 128.78125 L 29.953125 139.101562 L 6.351562 139.101562 C 4.550781 145.859375 3.101562 152.789062 2.085938 159.835938 L 159.71875 159.835938 L 159.71875 2.058594 Z M 159.691406 2.058594 " fill-opacity="1" fill-rule="nonzero"/><path fill="#c8202f" d="M 215.714844 2.117188 C 206.523438 0.726562 197.097656 0 187.527344 0 C 178.074219 0 168.796875 0.695312 159.691406 2.058594 L 159.691406 159.863281 L 2.058594 159.863281 C 0.726562 168.882812 0.0273438 178.105469 0.0273438 187.5 C 0.0273438 197.011719 0.726562 206.320312 2.085938 215.453125 L 159.660156 215.453125 L 159.660156 372.941406 C 168.738281 374.304688 178.019531 375 187.5 375 C 197.070312 375 206.492188 374.273438 215.6875 372.882812 L 215.6875 215.453125 L 372.914062 215.453125 C 374.273438 206.347656 374.972656 197.011719 374.972656 187.5 C 374.972656 178.105469 374.273438 168.882812 372.941406 159.863281 L 215.714844 159.863281 Z M 215.714844 2.117188 " fill-opacity="1" fill-rule="nonzero"/><path fill="#c8202f" d="M 280.757812 234.796875 L 354.816406 272.230469 C 357.484375 266.984375 359.921875 261.589844 362.097656 256.050781 L 320.601562 235.605469 Z M 280.757812 234.796875 " fill-opacity="1" fill-rule="nonzero"/><path fill="#c8202f" d="M 95.375 141.507812 L 20.007812 103.175781 C 17.339844 108.453125 14.933594 113.875 12.757812 119.441406 L 55.53125 140.699219 Z M 95.375 141.507812 " fill-opacity="1" fill-rule="nonzero"/><path fill="#c8202f" d="M 280.03125 141.015625 L 354.933594 103.03125 C 352.089844 97.433594 348.988281 91.980469 345.625 86.703125 L 238.390625 140.988281 Z M 280.03125 141.015625 " fill-opacity="1" fill-rule="nonzero"/><path fill="#c8202f" d="M 95.433594 234.300781 L 20.296875 272.320312 C 23.054688 277.742188 26.039062 282.988281 29.289062 288.066406 L 136.898438 234.214844 Z M 95.433594 234.300781 " fill-opacity="1" fill-rule="nonzero"/></svg>