<svg xmlns="http://www.w3.org/2000/svg" xmlns:xlink="http://www.w3.org/1999/xlink" width="500" zoomAndPan="magnify" viewBox="0 0 375 374.999991" height="500" preserveAspectRatio="xMidYMid meet" version="1.0"><path fill="#018d46" d="M 136.261719 8.414062 L 136.261719 366.585938 C 126.832031 363.890625 117.671875 360.472656 108.78125 356.324219 C 45.261719 326.675781 1.25 262.230469 1.25 187.5 C 1.25 112.769531 45.261719 48.324219 108.78125 18.675781 C 117.671875 14.527344 126.832031 11.109375 136.261719 8.414062 Z M 136.261719 8.414062 " fill-opacity="1" fill-rule="nonzero"/><path fill="#f3f6fd" d="M 287.835938 30.601562 L 287.835938 344.398438 C 284.550781 346.503906 281.199219 348.5 277.789062 350.390625 C 274.375 352.285156 270.90625 354.066406 267.382812 355.742188 C 263.859375 357.417969 260.285156 358.980469 256.660156 360.429688 C 253.039062 361.878906 249.375 363.210938 245.667969 364.433594 C 241.960938 365.652344 238.21875 366.753906 234.445312 367.738281 C 230.667969 368.722656 226.863281 369.585938 223.035156 370.332031 C 219.203125 371.078125 215.355469 371.699219 211.484375 372.203125 C 207.617188 372.707031 203.734375 373.089844 199.839844 373.347656 C 195.949219 373.605469 192.050781 373.746094 188.148438 373.757812 C 184.246094 373.773438 180.347656 373.664062 176.453125 373.433594 C 172.554688 373.203125 168.671875 372.851562 164.800781 372.375 C 160.925781 371.902344 157.070312 371.304688 153.238281 370.585938 C 149.402344 369.871094 145.589844 369.035156 141.808594 368.078125 C 138.027344 367.121094 134.277344 366.046875 130.5625 364.855469 C 126.84375 363.664062 123.171875 362.355469 119.539062 360.929688 C 115.90625 359.507812 112.320312 357.972656 108.78125 356.324219 L 108.78125 18.675781 C 112.320312 17.027344 115.902344 15.488281 119.539062 14.066406 C 123.171875 12.640625 126.84375 11.332031 130.558594 10.140625 C 134.273438 8.949219 138.023438 7.871094 141.808594 6.914062 C 145.589844 5.957031 149.398438 5.121094 153.234375 4.402344 C 157.070312 3.683594 160.925781 3.089844 164.800781 2.613281 C 168.671875 2.136719 172.554688 1.785156 176.453125 1.554688 C 180.347656 1.324219 184.246094 1.214844 188.148438 1.230469 C 192.050781 1.242188 195.949219 1.378906 199.839844 1.640625 C 203.734375 1.898438 207.617188 2.28125 211.488281 2.785156 C 215.355469 3.285156 219.207031 3.910156 223.035156 4.65625 C 226.867188 5.402344 230.667969 6.265625 234.445312 7.253906 C 238.222656 8.238281 241.964844 9.339844 245.667969 10.558594 C 249.375 11.777344 253.039062 13.113281 256.664062 14.566406 C 260.285156 16.015625 263.859375 17.578125 267.382812 19.253906 C 270.910156 20.929688 274.375 22.710938 277.789062 24.605469 C 281.203125 26.5 284.550781 28.496094 287.835938 30.601562 Z M 287.835938 30.601562 " fill-opacity="1" fill-rule="nonzero"/><path fill="#cd222b" d="M 373.691406 187.5 C 373.691406 253.398438 339.460938 311.300781 287.835938 344.398438 C 280.875 348.855469 273.648438 352.828125 266.15625 356.324219 L 266.15625 18.675781 C 273.648438 22.171875 280.875 26.144531 287.835938 30.601562 C 339.460938 63.699219 373.691406 121.601562 373.691406 187.5 Z M 373.691406 187.5 " fill-opacity="1" fill-rule="nonzero"/><path fill="#e6e6e6" d="M 187.46875 374.96875 C 169.949219 374.984375 152.757812 372.59375 135.902344 367.804688 C 126.421875 365.074219 117.203125 361.632812 108.246094 357.484375 C 104.230469 355.609375 100.28125 353.59375 96.40625 351.4375 C 92.53125 349.28125 88.738281 346.992188 85.027344 344.570312 C 81.3125 342.144531 77.691406 339.59375 74.160156 336.910156 C 70.628906 334.230469 67.195312 331.425781 63.863281 328.503906 C 60.53125 325.578125 57.304688 322.539062 54.1875 319.386719 C 51.070312 316.234375 48.070312 312.972656 45.183594 309.605469 C 42.296875 306.242188 39.535156 302.777344 36.894531 299.214844 C 34.253906 295.652344 31.742188 292.003906 29.359375 288.261719 C 26.976562 284.523438 24.730469 280.703125 22.621094 276.804688 C 20.507812 272.902344 18.539062 268.933594 16.710938 264.894531 C 14.878906 260.855469 13.195312 256.757812 11.65625 252.597656 C 10.121094 248.441406 8.730469 244.234375 7.488281 239.976562 C 6.25 235.71875 5.160156 231.421875 4.226562 227.089844 C 3.289062 222.753906 2.507812 218.394531 1.882812 214.003906 C 1.253906 209.613281 0.785156 205.207031 0.472656 200.785156 C 0.15625 196.363281 0 191.933594 0 187.5 C 0 183.066406 0.15625 178.636719 0.472656 174.214844 C 0.785156 169.792969 1.253906 165.386719 1.882812 160.996094 C 2.507812 156.605469 3.289062 152.246094 4.226562 147.910156 C 5.160156 143.578125 6.25 139.28125 7.488281 135.023438 C 8.730469 130.765625 10.121094 126.558594 11.65625 122.402344 C 13.195312 118.242188 14.878906 114.144531 16.710938 110.105469 C 18.539062 106.066406 20.507812 102.097656 22.621094 98.195312 C 24.730469 94.296875 26.976562 90.476562 29.359375 86.738281 C 31.742188 82.996094 34.253906 79.347656 36.894531 75.785156 C 39.535156 72.222656 42.296875 68.757812 45.183594 65.394531 C 48.070312 62.027344 51.070312 58.765625 54.1875 55.613281 C 57.304688 52.460938 60.53125 49.421875 63.863281 46.496094 C 67.195312 43.574219 70.628906 40.769531 74.160156 38.089844 C 77.691406 35.40625 81.3125 32.855469 85.027344 30.429688 C 88.738281 28.007812 92.53125 25.71875 96.40625 23.5625 C 100.28125 21.40625 104.230469 19.390625 108.246094 17.515625 C 117.203125 13.367188 126.421875 9.925781 135.902344 7.195312 C 152.757812 2.40625 169.949219 0.015625 187.46875 0.03125 C 196.378906 0.0078125 205.246094 0.621094 214.066406 1.871094 C 222.890625 3.121094 231.578125 4.996094 240.128906 7.496094 C 248.679688 9.996094 257.011719 13.09375 265.117188 16.789062 C 273.226562 20.484375 281.027344 24.742188 288.519531 29.558594 C 295.007812 33.726562 301.214844 38.269531 307.144531 43.195312 C 313.074219 48.121094 318.683594 53.390625 323.96875 59 C 329.253906 64.613281 334.179688 70.523438 338.742188 76.738281 C 343.300781 82.953125 347.46875 89.421875 351.238281 96.144531 C 353.175781 99.617188 355 103.148438 356.714844 106.738281 C 358.425781 110.328125 360.023438 113.96875 361.503906 117.660156 C 362.984375 121.351562 364.347656 125.085938 365.589844 128.863281 C 366.832031 132.640625 367.957031 136.453125 368.957031 140.304688 C 369.957031 144.152344 370.835938 148.03125 371.589844 151.933594 C 372.34375 155.839844 372.972656 159.765625 373.476562 163.710938 C 373.980469 167.65625 374.359375 171.613281 374.613281 175.582031 C 374.867188 179.550781 374.992188 183.523438 374.992188 187.5 C 374.992188 191.476562 374.867188 195.449219 374.613281 199.417969 C 374.359375 203.386719 373.980469 207.34375 373.476562 211.289062 C 372.972656 215.234375 372.34375 219.160156 371.589844 223.066406 C 370.835938 226.96875 369.957031 230.847656 368.957031 234.695312 C 367.957031 238.546875 366.832031 242.359375 365.589844 246.136719 C 364.347656 249.914062 362.984375 253.648438 361.503906 257.339844 C 360.023438 261.03125 358.425781 264.671875 356.714844 268.261719 C 355 271.851562 353.175781 275.382812 351.238281 278.855469 C 346.449219 287.40625 341.03125 295.53125 334.976562 303.234375 C 328.921875 310.9375 322.304688 318.125 315.132812 324.800781 C 307.957031 331.472656 300.308594 337.546875 292.1875 343.027344 C 284.0625 348.507812 275.566406 353.328125 266.691406 357.484375 C 254.292969 363.273438 241.410156 367.644531 228.046875 370.59375 C 214.679688 373.546875 201.15625 375.003906 187.46875 374.96875 Z M 187.46875 2.527344 C 173.96875 2.519531 160.628906 3.972656 147.449219 6.886719 C 134.265625 9.800781 121.554688 14.105469 109.316406 19.804688 C 44.429688 50.109375 2.5 115.921875 2.5 187.5 C 2.5 259.082031 44.429688 324.890625 109.316406 355.195312 C 112.828125 356.835938 116.390625 358.363281 119.996094 359.78125 C 123.605469 361.195312 127.253906 362.496094 130.945312 363.683594 C 134.636719 364.871094 138.359375 365.941406 142.117188 366.890625 C 145.875 367.84375 149.65625 368.675781 153.46875 369.390625 C 157.277344 370.105469 161.105469 370.699219 164.953125 371.171875 C 168.800781 371.644531 172.660156 371.996094 176.527344 372.222656 C 180.398438 372.453125 184.269531 372.5625 188.144531 372.546875 C 192.023438 372.53125 195.894531 372.398438 199.761719 372.140625 C 203.628906 371.882812 207.484375 371.5 211.328125 371 C 215.171875 370.5 218.996094 369.878906 222.800781 369.136719 C 226.605469 368.394531 230.382812 367.535156 234.132812 366.554688 C 237.882812 365.574219 241.601562 364.480469 245.28125 363.265625 C 248.960938 362.050781 252.601562 360.722656 256.199219 359.28125 C 259.796875 357.835938 263.34375 356.28125 266.84375 354.617188 C 270.34375 352.949219 273.789062 351.175781 277.175781 349.292969 C 280.566406 347.410156 283.890625 345.421875 287.152344 343.328125 C 340.5625 309.101562 372.441406 250.84375 372.441406 187.5 C 372.441406 124.15625 340.5625 65.898438 287.152344 31.671875 C 279.757812 26.925781 272.058594 22.730469 264.0625 19.085938 C 256.0625 15.441406 247.847656 12.386719 239.410156 9.921875 C 230.976562 7.453125 222.40625 5.601562 213.707031 4.363281 C 205.003906 3.125 196.257812 2.511719 187.46875 2.527344 Z M 187.46875 2.527344 " fill-opacity="1" fill-rule="nonzero"/></svg>