<svg xmlns="http://www.w3.org/2000/svg" xmlns:xlink="http://www.w3.org/1999/xlink" width="500" zoomAndPan="magnify" viewBox="0 0 375 374.999991" height="500" preserveAspectRatio="xMidYMid meet" version="1.0"><path fill="#eeeeee" d="M 375 187.5 C 375 190.570312 374.925781 193.636719 374.773438 196.699219 C 374.625 199.765625 374.398438 202.824219 374.097656 205.878906 C 373.796875 208.933594 373.421875 211.976562 372.96875 215.011719 C 372.519531 218.046875 371.996094 221.070312 371.398438 224.078125 C 370.796875 227.089844 370.125 230.082031 369.378906 233.058594 C 368.636719 236.035156 367.816406 238.992188 366.925781 241.929688 C 366.035156 244.863281 365.074219 247.777344 364.039062 250.667969 C 363.003906 253.554688 361.902344 256.417969 360.726562 259.253906 C 359.554688 262.089844 358.308594 264.894531 356.996094 267.667969 C 355.6875 270.441406 354.308594 273.179688 352.859375 275.886719 C 351.414062 278.59375 349.902344 281.261719 348.324219 283.894531 C 346.746094 286.527344 345.105469 289.117188 343.402344 291.667969 C 341.695312 294.222656 339.929688 296.730469 338.101562 299.195312 C 336.273438 301.660156 334.386719 304.078125 332.4375 306.449219 C 330.492188 308.820312 328.488281 311.144531 326.429688 313.417969 C 324.367188 315.691406 322.253906 317.914062 320.082031 320.082031 C 317.914062 322.253906 315.691406 324.367188 313.417969 326.429688 C 311.144531 328.488281 308.820312 330.492188 306.449219 332.4375 C 304.078125 334.386719 301.660156 336.273438 299.195312 338.101562 C 296.730469 339.929688 294.222656 341.695312 291.667969 343.402344 C 289.117188 345.105469 286.527344 346.746094 283.894531 348.324219 C 281.261719 349.902344 278.59375 351.414062 275.886719 352.859375 C 273.179688 354.308594 270.441406 355.6875 267.667969 356.996094 C 264.894531 358.308594 262.089844 359.554688 259.253906 360.726562 C 256.417969 361.902344 253.554688 363.003906 250.667969 364.039062 C 247.777344 365.074219 244.863281 366.035156 241.929688 366.925781 C 238.992188 367.816406 236.035156 368.636719 233.058594 369.378906 C 230.082031 370.125 227.089844 370.796875 224.078125 371.398438 C 221.070312 371.996094 218.046875 372.519531 215.011719 372.96875 C 211.976562 373.421875 208.933594 373.796875 205.878906 374.097656 C 202.824219 374.398438 199.765625 374.625 196.699219 374.773438 C 193.636719 374.925781 190.570312 375 187.5 375 C 184.429688 375 181.363281 374.925781 178.300781 374.773438 C 175.234375 374.625 172.175781 374.398438 169.121094 374.097656 C 166.066406 373.796875 163.023438 373.421875 159.988281 372.96875 C 156.953125 372.519531 153.929688 371.996094 150.921875 371.398438 C 147.910156 370.796875 144.917969 370.125 141.941406 369.378906 C 138.964844 368.636719 136.007812 367.816406 133.070312 366.925781 C 130.136719 366.035156 127.222656 365.074219 124.332031 364.039062 C 121.445312 363.003906 118.582031 361.902344 115.746094 360.726562 C 112.910156 359.554688 110.105469 358.308594 107.332031 356.996094 C 104.558594 355.6875 101.820312 354.308594 99.113281 352.859375 C 96.40625 351.414062 93.738281 349.902344 91.105469 348.324219 C 88.472656 346.746094 85.882812 345.105469 83.332031 343.402344 C 80.777344 341.695312 78.269531 339.929688 75.804688 338.101562 C 73.339844 336.273438 70.921875 334.386719 68.550781 332.4375 C 66.179688 330.492188 63.855469 328.488281 61.582031 326.429688 C 59.308594 324.367188 57.085938 322.253906 54.917969 320.082031 C 52.746094 317.914062 50.632812 315.691406 48.570312 313.417969 C 46.511719 311.144531 44.507812 308.820312 42.558594 306.449219 C 40.613281 304.078125 38.726562 301.660156 36.898438 299.195312 C 35.070312 296.730469 33.304688 294.222656 31.597656 291.667969 C 29.894531 289.117188 28.253906 286.527344 26.675781 283.894531 C 25.097656 281.261719 23.585938 278.59375 22.140625 275.886719 C 20.691406 273.179688 19.3125 270.441406 18.003906 267.667969 C 16.691406 264.890625 15.445312 262.089844 14.273438 259.253906 C 13.097656 256.417969 11.996094 253.554688 10.960938 250.667969 C 9.925781 247.777344 8.964844 244.863281 8.074219 241.929688 C 7.183594 238.992188 6.363281 236.035156 5.621094 233.058594 C 4.875 230.082031 4.203125 227.089844 3.601562 224.078125 C 3.003906 221.070312 2.480469 218.046875 2.03125 215.011719 C 1.578125 211.976562 1.203125 208.933594 0.902344 205.878906 C 0.601562 202.824219 0.375 199.765625 0.226562 196.699219 C 0.0742188 193.636719 0 190.570312 0 187.5 C 0 184.429688 0.0742188 181.363281 0.226562 178.300781 C 0.375 175.234375 0.601562 172.175781 0.902344 169.121094 C 1.203125 166.066406 1.578125 163.023438 2.03125 159.988281 C 2.480469 156.953125 3.003906 153.929688 3.601562 150.921875 C 4.203125 147.910156 4.875 144.917969 5.621094 141.941406 C 6.363281 138.964844 7.183594 136.007812 8.074219 133.070312 C 8.964844 130.136719 9.925781 127.222656 10.960938 124.332031 C 11.996094 121.445312 13.097656 118.582031 14.273438 115.746094 C 15.445312 112.910156 16.691406 110.105469 18.003906 107.332031 C 19.3125 104.558594 20.691406 101.820312 22.140625 99.113281 C 23.585938 96.40625 25.097656 93.738281 26.675781 91.105469 C 28.253906 88.472656 29.894531 85.882812 31.597656 83.332031 C 33.304688 80.777344 35.070312 78.269531 36.898438 75.804688 C 38.726562 73.339844 40.613281 70.921875 42.558594 68.550781 C 44.507812 66.179688 46.511719 63.855469 48.570312 61.582031 C 50.632812 59.308594 52.746094 57.085938 54.917969 54.917969 C 57.085938 52.746094 59.308594 50.632812 61.582031 48.570312 C 63.855469 46.511719 66.179688 44.507812 68.550781 42.558594 C 70.921875 40.613281 73.339844 38.726562 75.804688 36.898438 C 78.269531 35.070312 80.777344 33.304688 83.332031 31.597656 C 85.882812 29.894531 88.472656 28.253906 91.105469 26.675781 C 93.738281 25.097656 96.40625 23.585938 99.113281 22.140625 C 101.820312 20.691406 104.558594 19.3125 107.332031 18.003906 C 110.105469 16.691406 112.910156 15.445312 115.746094 14.273438 C 118.582031 13.097656 121.445312 11.996094 124.332031 10.960938 C 127.222656 9.925781 130.136719 8.964844 133.070312 8.074219 C 136.007812 7.183594 138.964844 6.363281 141.941406 5.617188 C 144.917969 4.875 147.910156 4.203125 150.921875 3.601562 C 153.929688 3.003906 156.953125 2.480469 159.988281 2.03125 C 163.023438 1.578125 166.066406 1.203125 169.121094 0.902344 C 172.175781 0.601562 175.234375 0.375 178.300781 0.226562 C 181.363281 0.0742188 184.429688 0 187.5 0 C 190.570312 0 193.636719 0.0742188 196.699219 0.226562 C 199.765625 0.375 202.824219 0.601562 205.878906 0.902344 C 208.933594 1.203125 211.976562 1.578125 215.011719 2.03125 C 218.046875 2.480469 221.070312 3.003906 224.078125 3.601562 C 227.089844 4.203125 230.082031 4.875 233.058594 5.617188 C 236.035156 6.363281 238.992188 7.183594 241.929688 8.074219 C 244.863281 8.964844 247.777344 9.925781 250.667969 10.960938 C 253.554688 11.996094 256.417969 13.097656 259.253906 14.273438 C 262.089844 15.445312 264.894531 16.691406 267.667969 18.003906 C 270.441406 19.3125 273.179688 20.691406 275.886719 22.140625 C 278.59375 23.585938 281.261719 25.097656 283.894531 26.675781 C 286.527344 28.253906 289.117188 29.894531 291.667969 31.597656 C 294.222656 33.304688 296.730469 35.070312 299.195312 36.898438 C 301.660156 38.726562 304.078125 40.613281 306.449219 42.558594 C 308.820312 44.507812 311.144531 46.511719 313.417969 48.570312 C 315.691406 50.632812 317.914062 52.746094 320.082031 54.917969 C 322.253906 57.085938 324.367188 59.308594 326.429688 61.582031 C 328.488281 63.855469 330.492188 66.179688 332.4375 68.550781 C 334.386719 70.921875 336.273438 73.339844 338.101562 75.804688 C 339.929688 78.269531 341.695312 80.777344 343.402344 83.332031 C 345.105469 85.882812 346.746094 88.472656 348.324219 91.105469 C 349.902344 93.738281 351.414062 96.40625 352.859375 99.113281 C 354.308594 101.820312 355.6875 104.558594 356.996094 107.332031 C 358.308594 110.105469 359.554688 112.910156 360.726562 115.746094 C 361.902344 118.582031 363.003906 121.445312 364.039062 124.332031 C 365.074219 127.222656 366.035156 130.136719 366.925781 133.070312 C 367.816406 136.007812 368.636719 138.964844 369.378906 141.941406 C 370.125 144.917969 370.796875 147.910156 371.398438 150.921875 C 371.996094 153.929688 372.519531 156.953125 372.96875 159.988281 C 373.421875 163.023438 373.796875 166.066406 374.097656 169.121094 C 374.398438 172.175781 374.625 175.234375 374.773438 178.300781 C 374.925781 181.363281 375 184.429688 375 187.5 Z M 375 187.5 " fill-opacity="1" fill-rule="nonzero"/><path fill="#d80027" d="M 269.019531 187.5 C 269.019531 188.835938 268.984375 190.167969 268.921875 191.5 C 268.855469 192.832031 268.757812 194.164062 268.625 195.488281 C 268.496094 196.816406 268.332031 198.140625 268.136719 199.460938 C 267.941406 200.78125 267.710938 202.09375 267.453125 203.402344 C 267.191406 204.710938 266.898438 206.011719 266.574219 207.308594 C 266.25 208.601562 265.894531 209.886719 265.507812 211.164062 C 265.121094 212.441406 264.703125 213.707031 264.253906 214.960938 C 263.804688 216.21875 263.324219 217.464844 262.8125 218.695312 C 262.300781 219.929688 261.761719 221.148438 261.191406 222.355469 C 260.621094 223.558594 260.023438 224.75 259.394531 225.925781 C 258.765625 227.105469 258.105469 228.265625 257.421875 229.410156 C 256.734375 230.554688 256.019531 231.679688 255.28125 232.789062 C 254.539062 233.898438 253.769531 234.988281 252.976562 236.058594 C 252.179688 237.132812 251.359375 238.183594 250.515625 239.214844 C 249.667969 240.246094 248.796875 241.257812 247.902344 242.246094 C 247.003906 243.234375 246.085938 244.199219 245.140625 245.140625 C 244.199219 246.085938 243.234375 247.003906 242.246094 247.902344 C 241.257812 248.796875 240.246094 249.667969 239.214844 250.515625 C 238.183594 251.359375 237.132812 252.179688 236.058594 252.976562 C 234.988281 253.769531 233.898438 254.539062 232.789062 255.28125 C 231.679688 256.019531 230.554688 256.734375 229.410156 257.421875 C 228.265625 258.105469 227.105469 258.765625 225.925781 259.394531 C 224.75 260.023438 223.558594 260.621094 222.355469 261.191406 C 221.148438 261.761719 219.929688 262.304688 218.695312 262.8125 C 217.464844 263.324219 216.21875 263.804688 214.960938 264.253906 C 213.707031 264.703125 212.441406 265.121094 211.164062 265.507812 C 209.886719 265.894531 208.601562 266.25 207.308594 266.574219 C 206.011719 266.898438 204.710938 267.191406 203.402344 267.453125 C 202.09375 267.710938 200.78125 267.941406 199.460938 268.136719 C 198.140625 268.332031 196.816406 268.496094 195.488281 268.625 C 194.164062 268.757812 192.832031 268.855469 191.5 268.921875 C 190.167969 268.984375 188.835938 269.019531 187.5 269.019531 C 186.164062 269.019531 184.832031 268.984375 183.5 268.921875 C 182.167969 268.855469 180.835938 268.757812 179.511719 268.625 C 178.183594 268.496094 176.859375 268.332031 175.539062 268.136719 C 174.21875 267.941406 172.90625 267.710938 171.597656 267.453125 C 170.289062 267.191406 168.988281 266.898438 167.691406 266.574219 C 166.398438 266.25 165.113281 265.894531 163.835938 265.507812 C 162.558594 265.121094 161.292969 264.703125 160.039062 264.253906 C 158.78125 263.804688 157.535156 263.324219 156.304688 262.8125 C 155.070312 262.300781 153.851562 261.761719 152.644531 261.191406 C 151.441406 260.621094 150.25 260.023438 149.074219 259.394531 C 147.894531 258.765625 146.734375 258.105469 145.589844 257.421875 C 144.445312 256.734375 143.320312 256.019531 142.210938 255.28125 C 141.101562 254.539062 140.011719 253.769531 138.9375 252.976562 C 137.867188 252.179688 136.816406 251.359375 135.785156 250.515625 C 134.753906 249.667969 133.742188 248.796875 132.753906 247.902344 C 131.765625 247.003906 130.800781 246.085938 129.859375 245.140625 C 128.914062 244.199219 127.996094 243.234375 127.097656 242.246094 C 126.203125 241.257812 125.332031 240.246094 124.484375 239.214844 C 123.640625 238.183594 122.820312 237.132812 122.023438 236.058594 C 121.230469 234.988281 120.460938 233.898438 119.71875 232.789062 C 118.980469 231.679688 118.265625 230.554688 117.578125 229.410156 C 116.894531 228.265625 116.234375 227.105469 115.605469 225.925781 C 114.976562 224.75 114.378906 223.558594 113.808594 222.355469 C 113.238281 221.148438 112.695312 219.929688 112.1875 218.695312 C 111.675781 217.464844 111.195312 216.21875 110.746094 214.960938 C 110.296875 213.707031 109.878906 212.441406 109.492188 211.164062 C 109.105469 209.886719 108.75 208.601562 108.425781 207.308594 C 108.101562 206.011719 107.808594 204.710938 107.546875 203.402344 C 107.289062 202.09375 107.058594 200.78125 106.863281 199.460938 C 106.667969 198.140625 106.503906 196.816406 106.375 195.488281 C 106.242188 194.164062 106.144531 192.832031 106.078125 191.5 C 106.015625 190.167969 105.980469 188.835938 105.980469 187.5 C 105.980469 186.164062 106.015625 184.832031 106.078125 183.5 C 106.144531 182.167969 106.242188 180.835938 106.375 179.511719 C 106.503906 178.183594 106.667969 176.859375 106.863281 175.539062 C 107.058594 174.21875 107.289062 172.90625 107.546875 171.597656 C 107.808594 170.289062 108.101562 168.988281 108.425781 167.691406 C 108.75 166.398438 109.105469 165.113281 109.492188 163.835938 C 109.878906 162.558594 110.296875 161.292969 110.746094 160.039062 C 111.195312 158.78125 111.675781 157.535156 112.1875 156.304688 C 112.695312 155.070312 113.238281 153.851562 113.808594 152.644531 C 114.378906 151.441406 114.976562 150.25 115.605469 149.074219 C 116.234375 147.894531 116.894531 146.734375 117.578125 145.589844 C 118.265625 144.445312 118.980469 143.320312 119.71875 142.210938 C 120.460938 141.101562 121.230469 140.011719 122.023438 138.9375 C 122.820312 137.867188 123.640625 136.816406 124.484375 135.785156 C 125.332031 134.753906 126.203125 133.742188 127.097656 132.753906 C 127.996094 131.765625 128.914062 130.800781 129.859375 129.859375 C 130.800781 128.914062 131.765625 127.996094 132.753906 127.097656 C 133.742188 126.203125 134.753906 125.332031 135.785156 124.484375 C 136.816406 123.640625 137.867188 122.820312 138.9375 122.023438 C 140.011719 121.230469 141.101562 120.460938 142.210938 119.71875 C 143.320312 118.980469 144.445312 118.265625 145.589844 117.578125 C 146.734375 116.894531 147.894531 116.234375 149.074219 115.605469 C 150.25 114.976562 151.441406 114.378906 152.644531 113.808594 C 153.851562 113.238281 155.070312 112.695312 156.304688 112.1875 C 157.535156 111.675781 158.78125 111.195312 160.039062 110.746094 C 161.292969 110.296875 162.558594 109.878906 163.835938 109.492188 C 165.113281 109.105469 166.398438 108.75 167.691406 108.425781 C 168.988281 108.101562 170.289062 107.808594 171.597656 107.546875 C 172.90625 107.289062 174.21875 107.058594 175.539062 106.863281 C 176.859375 106.667969 178.183594 106.503906 179.511719 106.375 C 180.835938 106.242188 182.167969 106.144531 183.5 106.078125 C 184.832031 106.015625 186.164062 105.980469 187.5 105.980469 C 188.835938 105.980469 190.167969 106.015625 191.5 106.078125 C 192.832031 106.144531 194.164062 106.242188 195.488281 106.375 C 196.816406 106.503906 198.140625 106.667969 199.460938 106.863281 C 200.78125 107.058594 202.09375 107.289062 203.402344 107.546875 C 204.710938 107.808594 206.011719 108.101562 207.308594 108.425781 C 208.601562 108.75 209.886719 109.105469 211.164062 109.492188 C 212.441406 109.878906 213.707031 110.296875 214.960938 110.746094 C 216.21875 111.195312 217.464844 111.675781 218.695312 112.1875 C 219.929688 112.695312 221.148438 113.238281 222.355469 113.808594 C 223.558594 114.378906 224.75 114.976562 225.925781 115.605469 C 227.105469 116.234375 228.265625 116.894531 229.410156 117.578125 C 230.554688 118.265625 231.679688 118.980469 232.789062 119.71875 C 233.898438 120.460938 234.988281 121.230469 236.058594 122.023438 C 237.132812 122.820312 238.183594 123.640625 239.214844 124.484375 C 240.246094 125.332031 241.257812 126.203125 242.246094 127.097656 C 243.234375 127.996094 244.199219 128.914062 245.140625 129.859375 C 246.085938 130.800781 247.003906 131.765625 247.902344 132.753906 C 248.796875 133.742188 249.667969 134.753906 250.515625 135.785156 C 251.359375 136.816406 252.179688 137.867188 252.976562 138.9375 C 253.769531 140.011719 254.539062 141.101562 255.28125 142.210938 C 256.019531 143.320312 256.734375 144.445312 257.421875 145.589844 C 258.105469 146.734375 258.765625 147.894531 259.394531 149.074219 C 260.023438 150.25 260.621094 151.441406 261.191406 152.644531 C 261.761719 153.851562 262.304688 155.070312 262.8125 156.304688 C 263.324219 157.535156 263.804688 158.78125 264.253906 160.039062 C 264.703125 161.292969 265.121094 162.558594 265.507812 163.835938 C 265.894531 165.113281 266.25 166.398438 266.574219 167.691406 C 266.898438 168.988281 267.191406 170.289062 267.453125 171.597656 C 267.710938 172.90625 267.941406 174.21875 268.136719 175.539062 C 268.332031 176.859375 268.496094 178.183594 268.625 179.511719 C 268.757812 180.835938 268.855469 182.167969 268.921875 183.5 C 268.984375 184.832031 269.019531 186.164062 269.019531 187.5 Z M 269.019531 187.5 " fill-opacity="1" fill-rule="nonzero"/></svg>